<svg width="24" height="24" viewBox="0 0 24 24" fill="none" xmlns="http://www.w3.org/2000/svg">
<g clip-path="url(#clip0_1733_1040)">
<path d="M9.99823 24C11.8093 24 13.3243 22.7089 13.6722 21H6.32422C6.6723 22.7089 8.18732 24 9.99823 24Z" fill="#EF9B28"/>
<path d="M17.5759 14.4959C17.5499 14.4959 17.5259 14.4999 17.4999 14.4999C13.0889 14.4999 9.50006 10.9111 9.50006 6.50006C9.50006 4.76697 10.06 3.16608 11.0001 1.85394V0.999939C11.0001 0.44696 10.552 0 9.99994 0C9.44806 0 9 0.44696 9 0.999939V2.08008C5.61292 2.56805 3 5.48108 3 9V11.788C3 13.767 2.133 15.635 0.611939 16.921C0.223022 17.254 0 17.738 0 18.2499C0 19.2151 0.784973 20.0001 1.74994 20.0001H18.2499C19.2151 20.0001 20.0001 19.2151 20.0001 18.2499C20.0001 17.738 19.777 17.254 19.3781 16.9131C18.59 16.246 17.9821 15.416 17.5759 14.4959Z" fill="#EF9B28"/>
<path d="M17.4999 0C13.916 0 11 2.91595 11 6.50006C11 10.084 13.916 12.9999 17.4999 12.9999C21.084 12.9999 23.9999 10.084 23.9999 6.50006C23.9999 2.91595 21.084 0 17.4999 0V0ZM18.5 8.75006C18.5 9.16406 18.164 9.50006 17.75 9.50006C17.336 9.50006 17 9.16406 17 8.75006V5.49994H16.4999C16.0859 5.49994 15.7499 5.16394 15.7499 4.74994C15.7499 4.33594 16.0859 3.99994 16.4999 3.99994H17.75C18.164 3.99994 18.5 4.33594 18.5 4.74994V8.75006Z" fill="#EF9B28"/>
</g>
<defs>
<clipPath id="clip0_1733_1040">
<rect width="24" height="24" fill="white"/>
</clipPath>
</defs>
</svg>
